<svg width="1106" height="814" viewBox="0 0 1106 814" fill="none" xmlns="http://www.w3.org/2000/svg">
<g clip-path="url(#clip0)">
<path opacity="0.1" d="M796.51 668.08C817.19 675.57 842.42 671.01 865.89 671.54C869.1 671.62 872.5 671.83 875.08 673.12C877.66 674.41 878.92 676.51 880.69 678.31C887.26 684.98 900.69 687.13 912.51 685.99C924.33 684.85 935.08 681.11 946.2 678.26C965.41 673.32 987.36 671.08 1006.31 676.46C1008.05 677.09 1009.89 677.382 1011.74 677.32C1015.9 676.88 1017.13 673.32 1020.04 671.26C1025.28 667.57 1036.67 668.57 1038.98 663.7C1040.33 660.85 1037.22 657.93 1033.84 655.98C1020.84 648.53 1002.37 647.3 985.42 648.45C968.47 649.6 951.78 652.77 934.78 652.78C913.56 652.78 893.05 647.92 872.04 645.92C857.48 644.54 841.59 644.72 827.94 648.78C813.14 653.19 809.88 663.07 796.51 668.08Z" fill="#1074E7"/>
<path d="M526.68 694.9C622.424 694.9 700.04 680.443 700.04 662.61C700.04 644.777 622.424 630.32 526.68 630.32C430.936 630.32 353.32 644.777 353.32 662.61C353.32 680.443 430.936 694.9 526.68 694.9Z" fill="#1074E7"/>
<path opacity="0.1" d="M11.24 780.92C50.56 794.14 98.53 786.1 143.14 787.03C149.25 787.16 155.71 787.54 160.61 789.82C165.51 792.1 167.92 795.82 171.28 798.98C183.78 810.77 209.4 814.53 231.78 812.53C254.16 810.53 274.69 803.91 295.78 798.86C332.31 790.14 374.06 786.18 410.08 795.68C413.38 796.55 416.86 797.56 420.41 797.21C428.31 796.43 430.66 790.11 436.18 786.49C446.18 779.97 467.81 781.74 472.18 773.15C474.75 768.15 468.84 762.95 462.41 759.51C437.79 746.35 402.57 744.18 370.35 746.21C338.13 748.24 306.44 753.84 274.06 753.86C233.78 753.91 194.78 745.3 154.78 741.78C127.11 739.34 96.9 739.64 70.95 746.78C42.85 754.61 36.66 772.06 11.24 780.92Z" fill="#1074E7"/>
<path opacity="0.1" d="M20.3101 429.97C37.6701 504.17 74.4201 568.31 132.5 599.4C253.2 664.01 525.41 630.68 728.57 592.4C831.228 573.119 924.409 519.85 993.11 441.17L20.3101 429.97Z" fill="#1074E7"/>
<path opacity="0.1" d="M1085.67 80.71H974.2C971.646 80.71 969.196 79.6954 967.391 77.8894C965.585 76.0835 964.57 73.634 964.57 71.08C964.57 68.526 965.585 66.0765 967.391 64.2706C969.196 62.4646 971.646 61.45 974.2 61.45H993.46C990.958 61.3694 988.586 60.319 986.845 58.5209C985.104 56.7227 984.13 54.3179 984.13 51.815C984.13 49.3121 985.104 46.9073 986.845 45.1091C988.586 43.311 990.958 42.2606 993.46 42.18H979.7C977.198 42.0994 974.826 41.049 973.085 39.2509C971.344 37.4527 970.37 35.0479 970.37 32.545C970.37 30.0421 971.344 27.6373 973.085 25.8392C974.826 24.041 977.198 22.9906 979.7 22.91H1037.88C1024.97 16.91 1009.93 12.64 992.5 10.4C833.86 -9.97 777.22 3.53 757.23 17.37C732.58 34.47 705.08 47.05 675.7 53.11C577.78 73.3 394.78 97.6 228.86 45.33C146.39 19.33 85.11 63.25 48.37 136.61H1105.02C1103.64 115.29 1099.51 95.61 1091.93 78.37C1090.19 79.8761 1087.97 80.7067 1085.67 80.71V80.71Z" fill="#1074E7"/>
<path opacity="0.1" d="M10.85 275.09C6.56866 318.238 8.02467 361.764 15.18 404.53L993.86 440.32C1021.1 408.982 1043.98 374.098 1061.86 336.62L10.85 275.09ZM397.93 367.45H378.67C381.224 367.45 383.673 368.465 385.479 370.271C387.285 372.077 388.3 374.526 388.3 377.08C388.3 379.634 387.285 382.083 385.479 383.889C383.673 385.695 381.224 386.71 378.67 386.71H267.2C264.646 386.71 262.197 385.695 260.391 383.889C258.585 382.083 257.57 379.634 257.57 377.08C257.57 374.526 258.585 372.077 260.391 370.271C262.197 368.465 264.646 367.45 267.2 367.45H286.46C283.958 367.369 281.586 366.319 279.845 364.521C278.104 362.723 277.13 360.318 277.13 357.815C277.13 355.312 278.104 352.907 279.845 351.109C281.586 349.311 283.958 348.261 286.46 348.18H272.7C270.198 348.099 267.826 347.049 266.085 345.251C264.344 343.453 263.37 341.048 263.37 338.545C263.37 336.042 264.344 333.637 266.085 331.839C267.826 330.041 270.198 328.991 272.7 328.91H384.17C386.672 328.991 389.044 330.041 390.785 331.839C392.526 333.637 393.5 336.042 393.5 338.545C393.5 341.048 392.526 343.453 390.785 345.251C389.044 347.049 386.672 348.099 384.17 348.18H397.93C399.221 348.138 400.508 348.357 401.713 348.822C402.919 349.288 404.018 349.991 404.946 350.89C405.875 351.788 406.613 352.865 407.117 354.054C407.621 355.244 407.88 356.523 407.88 357.815C407.88 359.107 407.621 360.386 407.117 361.576C406.613 362.765 405.875 363.842 404.946 364.74C404.018 365.639 402.919 366.342 401.713 366.808C400.508 367.273 399.221 367.492 397.93 367.45V367.45Z" fill="#1074E7"/>
<path opacity="0.1" d="M1105.07 137.28L36.58 163.27C23.58 196.69 14.97 234.46 10.99 273.61H1086.34C1093.36 250.612 1098.55 227.095 1101.87 203.28C1105.07 180.27 1106.35 158.01 1105.07 137.28ZM227.93 222.45H208.67C209.935 222.45 211.187 222.699 212.355 223.183C213.524 223.667 214.585 224.376 215.479 225.271C216.374 226.165 217.083 227.226 217.567 228.395C218.051 229.563 218.3 230.815 218.3 232.08C218.3 233.345 218.051 234.597 217.567 235.765C217.083 236.934 216.374 237.995 215.479 238.889C214.585 239.784 213.524 240.493 212.355 240.977C211.187 241.461 209.935 241.71 208.67 241.71H97.2C95.9354 241.71 94.6831 241.461 93.5147 240.977C92.3464 240.493 91.2848 239.784 90.3906 238.889C89.4963 237.995 88.787 236.934 88.303 235.765C87.8191 234.597 87.57 233.345 87.57 232.08C87.57 230.815 87.8191 229.563 88.303 228.395C88.787 227.226 89.4963 226.165 90.3906 225.271C91.2848 224.376 92.3464 223.667 93.5147 223.183C94.6831 222.699 95.9354 222.45 97.2 222.45H116.46C113.958 222.369 111.586 221.319 109.845 219.521C108.104 217.723 107.13 215.318 107.13 212.815C107.13 210.312 108.104 207.907 109.845 206.109C111.586 204.311 113.958 203.261 116.46 203.18H102.7C100.198 203.099 97.8261 202.049 96.085 200.251C94.3439 198.453 93.3704 196.048 93.3704 193.545C93.3704 191.042 94.3439 188.637 96.085 186.839C97.8261 185.041 100.198 183.991 102.7 183.91H214.17C216.672 183.991 219.044 185.041 220.785 186.839C222.526 188.637 223.5 191.042 223.5 193.545C223.5 196.048 222.526 198.453 220.785 200.251C219.044 202.049 216.672 203.099 214.17 203.18H227.93C229.221 203.138 230.508 203.357 231.713 203.822C232.919 204.288 234.018 204.991 234.946 205.89C235.875 206.788 236.613 207.865 237.117 209.054C237.621 210.244 237.88 211.523 237.88 212.815C237.88 214.107 237.621 215.386 237.117 216.576C236.613 217.765 235.875 218.842 234.946 219.74C234.018 220.639 232.919 221.342 231.713 221.808C230.508 222.273 229.221 222.492 227.93 222.45V222.45Z" fill="#1074E7"/>
<g opacity="0.1">
<path opacity="0.1" d="M632.89 590.01C632.89 590.01 661.09 520.53 713.78 494.73C735.941 484.06 754.041 466.487 765.36 444.65C770.652 434.244 774.98 423.375 778.29 412.18" stroke="#535461" stroke-width="2" stroke-miterlimit="10"/>
<path opacity="0.1" d="M811.35 395.73C805.86 402.63 777.45 412.73 777.45 412.73C777.45 412.73 780.87 382.78 786.36 375.88C789.088 372.865 792.863 371.002 796.915 370.669C800.968 370.337 804.996 371.56 808.179 374.09C811.362 376.62 813.463 380.267 814.054 384.291C814.645 388.314 813.682 392.411 811.36 395.75L811.35 395.73Z" fill="#1074E7"/>
<path opacity="0.1" d="M801.6 450.39C793.24 453.2 763.91 446.21 763.91 446.21C763.91 446.21 783.06 422.93 791.42 420.12C795.35 419.07 799.533 419.556 803.118 421.48C806.702 423.404 809.419 426.621 810.716 430.477C812.013 434.333 811.792 438.539 810.099 442.238C808.405 445.937 805.366 448.852 801.6 450.39Z" fill="#1074E7"/>
<path opacity="0.1" d="M748.78 515C740.14 513.2 718.36 492.37 718.36 492.37C718.36 492.37 746.64 481.94 755.27 483.73C757.434 484.038 759.512 484.787 761.376 485.93C763.239 487.073 764.849 488.585 766.106 490.374C767.362 492.163 768.238 494.19 768.681 496.331C769.123 498.472 769.123 500.681 768.678 502.821C768.234 504.962 767.356 506.989 766.098 508.776C764.84 510.564 763.229 512.076 761.365 513.217C759.5 514.358 757.421 515.105 755.257 515.412C753.092 515.718 750.888 515.578 748.78 515Z" fill="#1074E7"/>
<path opacity="0.1" d="M697.78 554.87C688.97 554.56 663.98 537.71 663.98 537.71C663.98 537.71 690.09 522.65 698.9 522.96C701.089 522.892 703.269 523.273 705.305 524.082C707.341 524.89 709.189 526.108 710.735 527.66C712.281 529.212 713.492 531.065 714.293 533.104C715.093 535.143 715.467 537.324 715.39 539.513C715.313 541.703 714.787 543.853 713.846 545.83C712.904 547.808 711.566 549.571 709.916 551.011C708.265 552.451 706.336 553.536 704.248 554.2C702.161 554.864 699.959 555.092 697.78 554.87V554.87Z" fill="#1074E7"/>
<path opacity="0.1" d="M736.61 426.68C737.74 435.43 756.84 458.75 756.84 458.75C756.84 458.75 769.41 431.35 768.28 422.6C767.499 418.613 765.23 415.073 761.935 412.697C758.639 410.321 754.563 409.288 750.534 409.807C746.505 410.326 742.824 412.359 740.238 415.492C737.652 418.626 736.355 422.625 736.61 426.68V426.68Z" fill="#1074E7"/>
<path opacity="0.1" d="M677.56 474.07C681.25 482.07 706.45 498.62 706.45 498.62C706.45 498.62 710.25 468.72 706.56 460.71C705.778 458.664 704.583 456.8 703.051 455.235C701.519 453.669 699.682 452.435 697.653 451.608C695.624 450.782 693.447 450.38 691.257 450.43C689.067 450.479 686.911 450.977 684.921 451.893C682.931 452.81 681.151 454.125 679.691 455.758C678.23 457.391 677.12 459.306 676.43 461.385C675.74 463.464 675.484 465.663 675.679 467.845C675.873 470.027 676.513 472.146 677.56 474.07Z" fill="#1074E7"/>
<path opacity="0.1" d="M626.48 528.01C628.78 536.53 650.78 557.09 650.78 557.09C650.78 557.09 659.57 528.26 657.29 519.74C656.864 517.591 656.002 515.553 654.756 513.751C653.51 511.949 651.908 510.422 650.048 509.265C648.188 508.108 646.11 507.345 643.943 507.024C641.777 506.702 639.567 506.829 637.451 507.396C635.335 507.964 633.359 508.959 631.643 510.322C629.928 511.684 628.511 513.385 627.48 515.317C626.448 517.25 625.825 519.373 625.648 521.557C625.47 523.74 625.744 525.936 626.45 528.01H626.48Z" fill="#1074E7"/>
<path opacity="0.25" d="M811.35 395.73C805.86 402.63 777.45 412.73 777.45 412.73C777.45 412.73 780.87 382.78 786.36 375.88C789.088 372.865 792.863 371.002 796.915 370.669C800.968 370.337 804.996 371.56 808.179 374.09C811.362 376.62 813.463 380.267 814.054 384.291C814.645 388.314 813.682 392.411 811.36 395.75L811.35 395.73Z" fill="black"/>
<path opacity="0.25" d="M801.6 450.39C793.24 453.2 763.91 446.21 763.91 446.21C763.91 446.21 783.06 422.93 791.42 420.12C795.35 419.07 799.533 419.556 803.118 421.48C806.702 423.404 809.419 426.621 810.716 430.477C812.013 434.333 811.792 438.539 810.099 442.238C808.405 445.937 805.366 448.852 801.6 450.39Z" fill="black"/>
<path opacity="0.25" d="M748.78 515C740.14 513.2 718.36 492.37 718.36 492.37C718.36 492.37 746.64 481.94 755.27 483.73C757.434 484.038 759.512 484.787 761.376 485.93C763.239 487.073 764.849 488.585 766.106 490.374C767.362 492.163 768.238 494.19 768.681 496.331C769.123 498.472 769.123 500.681 768.678 502.821C768.234 504.962 767.356 506.989 766.098 508.776C764.84 510.564 763.229 512.076 761.365 513.217C759.5 514.358 757.421 515.105 755.257 515.412C753.092 515.718 750.888 515.578 748.78 515Z" fill="black"/>
<path opacity="0.25" d="M697.78 554.87C688.97 554.56 663.98 537.71 663.98 537.71C663.98 537.71 690.09 522.65 698.9 522.96C701.089 522.892 703.269 523.273 705.305 524.082C707.341 524.89 709.189 526.108 710.735 527.66C712.281 529.212 713.492 531.065 714.293 533.104C715.093 535.143 715.467 537.324 715.39 539.513C715.313 541.703 714.787 543.853 713.846 545.83C712.904 547.808 711.566 549.571 709.916 551.011C708.265 552.451 706.336 553.536 704.248 554.2C702.161 554.864 699.959 555.092 697.78 554.87V554.87Z" fill="black"/>
<path opacity="0.25" d="M736.61 426.68C737.74 435.43 756.84 458.75 756.84 458.75C756.84 458.75 769.41 431.35 768.28 422.6C767.499 418.613 765.23 415.073 761.935 412.697C758.639 410.321 754.563 409.288 750.534 409.807C746.505 410.326 742.824 412.359 740.238 415.492C737.652 418.626 736.355 422.625 736.61 426.68V426.68Z" fill="black"/>
<path opacity="0.25" d="M677.56 474.07C681.25 482.07 706.45 498.62 706.45 498.62C706.45 498.62 710.25 468.72 706.56 460.71C705.778 458.664 704.583 456.8 703.051 455.235C701.519 453.669 699.682 452.435 697.653 451.608C695.624 450.782 693.447 450.38 691.257 450.43C689.067 450.479 686.911 450.977 684.921 451.893C682.931 452.81 681.151 454.125 679.691 455.758C678.23 457.391 677.12 459.306 676.43 461.385C675.74 463.464 675.484 465.663 675.679 467.845C675.873 470.027 676.513 472.146 677.56 474.07Z" fill="black"/>
<path opacity="0.25" d="M626.48 528.01C628.78 536.53 650.78 557.09 650.78 557.09C650.78 557.09 659.57 528.26 657.29 519.74C656.864 517.591 656.002 515.553 654.756 513.751C653.51 511.949 651.908 510.422 650.048 509.265C648.188 508.108 646.11 507.345 643.943 507.024C641.777 506.702 639.567 506.829 637.451 507.396C635.335 507.964 633.359 508.959 631.643 510.322C629.928 511.684 628.511 513.385 627.48 515.317C626.448 517.25 625.825 519.373 625.648 521.557C625.47 523.74 625.744 525.936 626.45 528.01H626.48Z" fill="black"/>
</g>
<g opacity="0.1">
<path opacity="0.1" d="M612.87 488.39C612.87 488.39 616.43 413.47 657.56 371.68C674.929 354.27 686.176 331.691 689.61 307.34C691.157 295.765 691.636 284.073 691.04 272.41" stroke="#535461" stroke-width="2" stroke-miterlimit="10"/>
<path opacity="0.1" d="M716.78 245.93C713.89 254.26 690.42 273.18 690.42 273.18C690.42 273.18 683.72 243.79 686.61 235.46C688.185 231.71 691.13 228.701 694.844 227.045C698.558 225.388 702.764 225.208 706.607 226.542C710.449 227.875 713.639 230.622 715.529 234.223C717.419 237.825 717.866 242.011 716.78 245.93Z" fill="#1074E7"/>
<path opacity="0.1" d="M725.78 300.72C718.78 306.14 688.85 309.28 688.85 309.28C688.85 309.28 699.19 280.96 706.15 275.54C707.784 274.079 709.701 272.97 711.781 272.28C713.862 271.591 716.062 271.337 718.245 271.533C720.428 271.729 722.547 272.371 724.472 273.42C726.396 274.469 728.085 275.903 729.432 277.631C730.78 279.36 731.758 281.347 732.306 283.469C732.854 285.591 732.96 287.803 732.617 289.968C732.275 292.133 731.491 294.205 730.315 296.054C729.139 297.904 727.595 299.492 725.78 300.72Z" fill="#1074E7"/>
<path opacity="0.1" d="M697.29 379.2C688.55 380.37 661.08 367.94 661.08 367.94C661.08 367.94 684.31 348.72 693.08 347.55C697.135 347.273 701.143 348.548 704.291 351.118C707.439 353.688 709.491 357.36 710.031 361.388C710.57 365.416 709.557 369.499 707.196 372.807C704.836 376.115 701.305 378.401 697.32 379.2H697.29Z" fill="#1074E7"/>
<path opacity="0.1" d="M662.4 433.74C653.98 436.37 624.81 428.74 624.81 428.74C624.81 428.74 644.45 405.87 652.87 403.24C656.821 402.276 660.991 402.853 664.533 404.853C668.074 406.853 670.72 410.127 671.934 414.009C673.148 417.891 672.838 422.089 671.067 425.751C669.296 429.412 666.197 432.262 662.4 433.72V433.74Z" fill="#1074E7"/>
<path opacity="0.1" d="M656.56 299.9C660.56 307.78 686.28 323.45 686.28 323.45C686.28 323.45 689.05 293.45 685.09 285.56C683.032 282.058 679.719 279.47 675.823 278.321C671.927 277.172 667.74 277.548 664.111 279.372C660.482 281.196 657.682 284.332 656.28 288.144C654.878 291.956 654.978 296.159 656.56 299.9Z" fill="#1074E7"/>
<path opacity="0.1" d="M616.57 364.2C622.7 370.53 651.96 377.78 651.96 377.78C651.96 377.78 645.63 348.31 639.49 341.97C638.073 340.3 636.327 338.939 634.362 337.971C632.397 337.003 630.254 336.448 628.066 336.342C625.879 336.236 623.692 336.581 621.643 337.354C619.593 338.127 617.724 339.313 616.152 340.838C614.58 342.363 613.337 344.195 612.501 346.22C611.666 348.245 611.255 350.42 611.294 352.61C611.333 354.8 611.822 356.959 612.729 358.952C613.637 360.946 614.944 362.732 616.57 364.2V364.2Z" fill="#1074E7"/>
<path opacity="0.1" d="M586.26 432.03C591.26 439.3 618.86 451.39 618.86 451.39C618.86 451.39 617.6 421.27 612.62 413.99C611.513 412.093 610.027 410.443 608.255 409.145C606.483 407.847 604.462 406.928 602.319 406.445C600.176 405.962 597.957 405.925 595.799 406.337C593.641 406.749 591.591 407.601 589.777 408.84C587.963 410.078 586.424 411.678 585.254 413.537C584.085 415.397 583.312 417.478 582.982 419.65C582.652 421.821 582.772 424.038 583.336 426.161C583.9 428.284 584.896 430.268 586.26 431.99V432.03Z" fill="#1074E7"/>
</g>
<path d="M375.96 104.29H369.17V200.25H375.96V104.29Z" fill="#535461"/>
<path d="M375.96 233.21H369.17V287.49H375.96V233.21Z" fill="#535461"/>
<path d="M632.25 10.27H421.12C395.107 10.27 374.02 31.3574 374.02 57.37V626.17C374.02 652.183 395.107 673.27 421.12 673.27H632.25C658.263 673.27 679.35 652.183 679.35 626.17V57.37C679.35 31.3574 658.263 10.27 632.25 10.27Z" fill="#535461"/>
<path d="M632.25 41.29H421.12C395.107 41.29 374.02 62.3774 374.02 88.39V598.06C374.02 624.073 395.107 645.16 421.12 645.16H632.25C658.263 645.16 679.35 624.073 679.35 598.06V88.39C679.35 62.3774 658.263 41.29 632.25 41.29Z" fill="#1074E7"/>
<path d="M549.28 24.81H505.04C503.339 24.81 501.96 26.189 501.96 27.89V28.52C501.96 30.221 503.339 31.6 505.04 31.6H549.28C550.981 31.6 552.36 30.221 552.36 28.52V27.89C552.36 26.189 550.981 24.81 549.28 24.81Z" fill="#EAEAF3"/>
<path d="M569.81 33.54C572.489 33.54 574.66 31.3686 574.66 28.69C574.66 26.0114 572.489 23.84 569.81 23.84C567.131 23.84 564.96 26.0114 564.96 28.69C564.96 31.3686 567.131 33.54 569.81 33.54Z" fill="#EAEAF3"/>
<path d="M423.78 522.68V504.68C423.78 504.542 423.835 504.41 423.932 504.312C424.03 504.215 424.162 504.16 424.3 504.16H426.3C426.368 504.16 426.435 504.173 426.498 504.2C426.56 504.226 426.617 504.264 426.664 504.313C426.712 504.361 426.749 504.419 426.774 504.482C426.799 504.545 426.811 504.612 426.81 504.68V512.18L435.13 504.48C435.33 504.316 435.573 504.211 435.829 504.179C436.086 504.147 436.347 504.188 436.582 504.298C436.816 504.408 437.014 504.582 437.154 504.8C437.294 505.018 437.368 505.271 437.37 505.53V521.83C437.368 522.089 437.294 522.342 437.154 522.56C437.014 522.778 436.816 522.952 436.582 523.062C436.347 523.172 436.086 523.213 435.829 523.181C435.573 523.149 435.33 523.044 435.13 522.88L426.78 515.22V522.68C426.781 522.748 426.769 522.815 426.744 522.878C426.719 522.941 426.682 522.999 426.634 523.047C426.587 523.096 426.53 523.134 426.468 523.16C426.405 523.187 426.338 523.2 426.27 523.2H424.27C424.137 523.192 424.013 523.134 423.922 523.038C423.83 522.941 423.78 522.813 423.78 522.68V522.68Z" fill="#535461"/>
<path d="M624.78 504.64V522.64C624.781 522.708 624.769 522.775 624.744 522.838C624.719 522.901 624.682 522.959 624.634 523.007C624.587 523.056 624.53 523.094 624.468 523.12C624.405 523.147 624.338 523.16 624.27 523.16H622.22C622.152 523.16 622.085 523.147 622.023 523.12C621.96 523.094 621.903 523.056 621.856 523.007C621.808 522.959 621.771 522.901 621.746 522.838C621.721 522.775 621.709 522.708 621.71 522.64V515.14L613.39 522.84C613.191 523.006 612.949 523.111 612.692 523.144C612.436 523.176 612.175 523.135 611.941 523.025C611.707 522.915 611.509 522.74 611.371 522.521C611.232 522.302 611.159 522.049 611.16 521.79V505.53C611.159 505.271 611.232 505.017 611.371 504.799C611.509 504.58 611.707 504.405 611.941 504.295C612.175 504.185 612.436 504.144 612.692 504.176C612.949 504.209 613.191 504.314 613.39 504.48L621.71 512.14V504.68C621.709 504.612 621.721 504.545 621.746 504.482C621.771 504.419 621.808 504.361 621.856 504.313C621.903 504.264 621.96 504.226 622.023 504.2C622.085 504.173 622.152 504.16 622.22 504.16H624.27C624.4 504.16 624.526 504.209 624.621 504.299C624.715 504.388 624.772 504.51 624.78 504.64V504.64Z" fill="#535461"/>
<path d="M520.86 523.53H516.78C516.25 523.53 515.741 523.319 515.366 522.944C514.991 522.569 514.78 522.06 514.78 521.53V506.53C514.78 506 514.991 505.491 515.366 505.116C515.741 504.741 516.25 504.53 516.78 504.53H520.85C521.38 504.53 521.889 504.741 522.264 505.116C522.639 505.491 522.85 506 522.85 506.53V521.46C522.859 521.728 522.815 521.994 522.719 522.245C522.624 522.495 522.479 522.723 522.293 522.916C522.107 523.109 521.885 523.263 521.639 523.368C521.393 523.474 521.128 523.529 520.86 523.53ZM533.76 521.53V506.53C533.76 506 533.549 505.491 533.174 505.116C532.799 504.741 532.29 504.53 531.76 504.53H527.69C527.16 504.53 526.651 504.741 526.276 505.116C525.901 505.491 525.69 506 525.69 506.53V521.46C525.69 521.99 525.901 522.499 526.276 522.874C526.651 523.249 527.16 523.46 527.69 523.46H531.76C532.024 523.463 532.287 523.413 532.532 523.314C532.777 523.214 532.999 523.067 533.187 522.881C533.375 522.695 533.524 522.474 533.626 522.23C533.728 521.986 533.78 521.724 533.78 521.46L533.76 521.53Z" fill="#535461"/>
<path d="M644.25 480.31H404.25V482.98H644.25V480.31Z" fill="#EAEAF3"/>
<path d="M478.36 487.97C481.856 487.97 484.69 485.136 484.69 481.64C484.69 478.144 481.856 475.31 478.36 475.31C474.864 475.31 472.03 478.144 472.03 481.64C472.03 485.136 474.864 487.97 478.36 487.97Z" fill="#535461"/>
<path d="M478.36 480.31H404.25V482.98H478.36V480.31Z" fill="#535461"/>
<path d="M334.78 380.62C334.78 380.62 326.22 358.81 297.12 339.35C268.02 319.89 268.36 308.35 268.36 308.35C268.36 308.35 262.89 267.53 255.7 256.13C248.51 244.73 244.4 228.28 244.4 228.28C244.4 228.28 244.1 228.68 243.61 229.28C243.61 229 243.55 228.71 243.51 228.4C242.78 222.36 240.9 211.03 237.78 214.53C237.78 214.53 237.07 215.11 235.88 216.03L235.39 215.4C232.52 211.69 227.84 205.51 227.84 204.47C227.84 202.96 192.07 175.47 182.99 171.24C176.59 168.24 162.84 160.55 155.32 156.24C151.797 154.244 147.688 153.537 143.7 154.24C132.7 156.15 111.7 161.1 114.52 170.56C118.28 183.31 132.83 179.79 142.76 172.56C142.76 172.56 151.5 169.21 161.42 179.11C171.34 189.01 212.1 218.2 212.1 218.2L215.49 227.6L215.81 228.5C214.631 228.965 213.366 229.173 212.1 229.11C209.02 228.72 210.28 231.74 212.53 235.11C212.84 235.57 213.17 236.04 213.53 236.5C213.12 236.34 212.72 236.19 212.3 236C212.3 236 212.54 236.46 212.95 237.28L212.3 237.01C212.3 237.01 228.05 267.21 229.07 272.92C229.517 275.416 229.761 277.944 229.8 280.48C229.8 283.11 229.42 285.16 228.73 285.67C227.36 286.67 223.25 297.08 223.25 297.08L207.16 297.77C206.68 297.72 206.16 297.67 205.72 297.6L204.72 297.45C204.72 297.32 204.72 297.2 204.72 297.07C204.72 290.381 202.422 283.896 198.21 278.7H198.45C201.85 271.3 194.53 263.58 192.94 255.58C192.563 252.974 192.395 250.342 192.44 247.71C192.405 246.659 192.315 245.611 192.17 244.57C190.52 233.52 180.02 226.15 169.79 221.95C163.79 219.46 156.79 217.61 150.85 220.27C143.91 223.35 140.56 231.46 134.3 235.77C124.3 242.66 110.69 237.91 98.75 239.95C94.12 240.74 89.43 242.79 86.75 246.7C84.39 250.12 83.85 254.49 83.75 258.65C83.46 269.72 85.68 281.03 82.75 291.65C78 309.01 61.43 319.65 49.04 332.57C41.1435 340.805 34.7171 350.333 30.04 360.74C28.27 364.69 26.9 369.74 29.75 373C31.38 374.83 33.96 375.49 35.66 377.24C37.83 379.47 38.12 382.96 37.72 386.06C36.23 397.59 27.57 406.54 20.72 415.9C13.87 425.26 8.66001 438.12 14.46 448.14C19.46 456.77 30.4 459.35 40.14 461.14C43.24 461.7 46.53 462.25 49.47 461.14C52.12 460.14 54.09 457.84 55.83 455.55C59.8455 450.277 63.1785 444.518 65.75 438.41C67.01 435.41 68.26 432.12 71.03 430.41C73.48 428.94 76.54 429.13 79.4 429.36L100.78 431.12C102.585 431.405 104.431 431.278 106.18 430.75C108.199 429.786 109.844 428.183 110.86 426.19C112.492 423.327 113.775 420.279 114.68 417.11C117.25 408.79 118.68 399.87 124.68 393.91C130.1 388.6 138.12 387.01 145.68 386.91C150.3 386.91 154.91 387.33 159.52 387.52C160.81 387.58 162.12 387.62 163.41 387.62C164.28 387.62 165.15 387.62 166.02 387.57C167.73 399.43 169.84 416.99 168.19 421.85C165.62 429.41 165.79 434.27 165.79 434.27L166.97 434.85C166.86 435.12 166.75 435.4 166.64 435.7C165.4 439.05 164.53 443.98 168.36 447.11C168.989 447.611 169.658 448.059 170.36 448.45L170.07 449.29C166.34 460.11 157.78 485.42 156.98 492.15C155.98 500.79 143.63 527.06 143.63 527.06C143.63 527.06 110.08 554.65 140.29 564.64C140.29 564.64 143.23 554.21 149.54 546.12C153.314 541.313 156.193 535.866 158.04 530.04C158.846 527.508 160.033 525.114 161.56 522.94C164.25 519.12 169.94 507.39 175.26 495.94L179.52 496.85C177.38 506.1 176.81 522.05 184.76 547.42C184.76 547.42 184.93 548.42 185.2 550.01C185.029 549.889 184.845 549.788 184.65 549.71C180.85 548.14 174.89 553.55 171.33 561.81C168.08 569.36 167.95 576.67 170.88 579.06C171.147 579.288 171.447 579.474 171.77 579.61C172.826 579.996 173.99 579.96 175.02 579.51C175.068 579.494 175.115 579.474 175.16 579.45C176.005 579.103 176.796 578.639 177.51 578.07C180.37 577.36 183.29 575.99 186.23 576.14C187.005 576.181 187.773 576.309 188.52 576.52C188.72 579.52 188.82 582.43 188.74 584.91C188.35 598.13 188.11 603.91 188.11 603.91C188.11 603.91 186.17 613.72 184.63 616.11C183.09 618.5 181.43 669.11 187.84 693.38C187.84 693.38 192.21 716.91 190.28 720.93V721.01C189.461 723.132 188.978 725.369 188.85 727.64C188.686 729.595 188.623 731.558 188.66 733.52L179.41 761.83C179.41 761.83 179.16 762.33 178.83 763.15C177.817 765.547 177.438 768.164 177.73 770.75C177.913 771.949 178.379 773.087 179.09 774.07V774.07C179.09 774.07 177.78 786.53 191.84 786.31C205.9 786.09 208.36 776.67 208.36 776.67L207.36 772.26C207.471 771.907 207.528 771.54 207.53 771.17C207.53 771.17 207.43 769.62 207.32 767.29C207.07 761.16 206.78 749.65 208.18 747.01C210.1 743.36 208.94 727.76 208.94 727.76L208.43 723.51L207.9 719.07L207.15 712.78C207.15 712.78 206.93 685.98 209.28 682.08C211.46 678.47 218.54 645.58 216.44 623.54C216.125 619.927 216.557 616.288 217.71 612.85C219.81 606.37 222.71 595.58 221.91 587.95C221.83 587.22 221.78 586.28 221.76 585.15C223.366 587.633 225.529 589.707 228.078 591.207C230.626 592.707 233.49 593.592 236.44 593.79H236.16H236.92C241.248 593.994 245.511 592.686 248.98 590.09C256.17 584.77 263.98 575.9 268.32 561.26C269.499 557.177 270.925 553.17 272.59 549.26C276.59 540.11 283.43 522.92 284.91 510.61L285.34 511.03C285.34 511.03 294.94 482.47 294.67 471.31C294.799 469.843 294.594 468.366 294.07 466.99L293.96 466.11C293.991 466.062 294.028 466.019 294.07 465.98C294.07 465.98 290.28 436.08 288.94 410.58L301.26 401.39C301.26 401.39 295.44 389.39 299.2 387.14C302.96 384.89 308.45 399.04 308.45 399.04C308.45 399.04 345.06 401.09 334.78 380.62ZM197.32 413.67L205.13 405.82C205.88 410.13 204.06 415.3 197.13 421.22L196.89 421.3C197.32 417 197.32 413.67 197.32 413.67ZM187.97 327.38C187.97 327.38 187.07 328.07 185.61 329.24C185.36 327.82 185.1 326.39 184.82 324.97C185.26 325.24 185.69 325.51 186.1 325.81C186.762 326.286 187.387 326.811 187.97 327.38V327.38ZM227.41 512.08L228.41 503.77L230.6 505.2C228.616 510.981 227.137 516.923 226.18 522.96C226.7 517.65 227.11 513.68 227.28 511.96L227.41 512.08ZM225.41 538.67C225.522 540.229 225.328 541.795 224.84 543.28H224.3C224.64 539.41 224.98 535.63 225.3 532.1C225.236 534.291 225.282 536.484 225.44 538.67H225.41Z" fill="url(#paint0_linear)"/>
<path d="M172.25 566.83V577.83C176.64 579.46 181.25 575.67 185.93 575.91C188.66 576.04 191.14 577.56 193.84 578.02C194.176 578.109 194.526 578.129 194.87 578.079C195.213 578.029 195.543 577.91 195.84 577.73C196.335 577.221 196.626 576.549 196.66 575.84C197.66 569.99 198.76 555.84 189.66 554.84C182.94 554.07 180.37 566.05 172.25 566.83Z" fill="#FFB9B9"/>
<path opacity="0.1" d="M172.25 566.83V577.83C176.64 579.46 181.25 575.67 185.93 575.91C188.66 576.04 191.14 577.56 193.84 578.02C194.176 578.109 194.526 578.129 194.87 578.079C195.213 578.029 195.543 577.91 195.84 577.73C196.335 577.221 196.626 576.549 196.66 575.84C197.66 569.99 198.76 555.84 189.66 554.84C182.94 554.07 180.37 566.05 172.25 566.83Z" fill="black"/>
<path d="M184.83 567.31C182.28 573.31 178.47 577.84 175.16 579.18C175.115 579.204 175.068 579.224 175.02 579.24C174.019 579.682 172.885 579.714 171.86 579.33C171.541 579.201 171.247 579.019 170.99 578.79C168.14 576.41 168.26 569.15 171.43 561.65C174.89 553.45 180.7 548.07 184.43 549.65C188.16 551.23 188.3 559.11 184.83 567.31Z" fill="#4C4C78"/>
<path d="M179.13 769.9L178.94 772.52C178.94 772.52 177.71 784.82 191.38 784.65C205.05 784.48 207.46 775.07 207.46 775.07L206.05 768.82L179.13 769.9Z" fill="#4C4C78"/>
<path d="M226 511.23C226 511.23 219.38 576.1 220.63 587.6C221.45 595.18 218.63 605.9 216.54 612.34C215.42 615.758 215.002 619.367 215.31 622.95C217.31 644.85 210.46 677.52 208.31 681.1C206.02 684.98 206.23 711.6 206.23 711.6L206.96 717.85L207.48 722.26L207.97 726.48C207.97 726.48 209.1 741.98 207.23 745.6C205.87 748.23 206.15 759.66 206.4 765.75C206.5 768.06 206.6 769.6 206.6 769.6C206.584 770.679 206.179 771.716 205.46 772.52C203.77 774.6 199.58 776.96 189.23 776.6C180.96 776.31 178.23 772.86 177.59 769.22C177.305 766.653 177.674 764.057 178.66 761.67C178.98 760.85 179.23 760.36 179.23 760.36L188.23 732.23C188.193 730.281 188.256 728.332 188.42 726.39C188.54 724.138 189.009 721.918 189.81 719.81V719.73C191.69 715.73 187.43 692.36 187.43 692.36C181.19 668.23 182.81 617.98 184.31 615.6C185.81 613.22 187.78 603.53 187.78 603.53C187.78 603.53 188.02 597.78 188.4 584.65C188.78 571.52 184.52 547.41 184.52 547.41C170.4 501.41 183.9 486.53 183.9 486.53L226.02 496.41L226 511.23Z" fill="#FFB9B9"/>
<path d="M207.51 722.26C202.93 723.78 193.51 726.67 188.45 726.39C188.57 724.138 189.039 721.918 189.84 719.81C193.97 720.64 200.97 721.25 206.99 717.81L207.51 722.26Z" fill="#4C4C78"/>
<path d="M205.49 772.53C199.27 769.27 187.55 764.63 177.62 769.23C177.335 766.663 177.704 764.067 178.69 761.68C184.46 760.91 196.69 760.19 206.43 765.76C206.53 768.07 206.63 769.61 206.63 769.61C206.614 770.689 206.209 771.726 205.49 772.53V772.53Z" fill="#4C4C78"/>
<path d="M186.71 444.65V470.31C186.71 470.31 167.55 514.9 161.92 523.06C160.427 525.223 159.27 527.6 158.49 530.11C156.703 535.893 153.899 541.311 150.21 546.11C144.07 554.11 141.21 564.5 141.21 564.5C111.8 554.58 144.46 527.17 144.46 527.17C144.46 527.17 156.46 501.08 157.46 492.5C158.24 485.81 166.57 460.67 170.2 449.92C171.2 446.92 171.88 445 171.88 445L186.71 444.65Z" fill="#FFB9B9"/>
<path opacity="0.05" d="M228 544.53C228 544.53 217.71 537.53 213.71 556.53C209.71 575.53 225.05 580.53 225.05 580.53L228 544.53Z" fill="black"/>
<path d="M232.21 497.32C232.21 497.32 222.67 518.22 224.09 538.65C224.236 540.535 223.927 542.428 223.19 544.17C219.024 554.177 217.174 564.997 217.78 575.82C217.78 576.02 217.78 576.22 217.78 576.42C218.005 579.698 219.111 582.854 220.98 585.556C222.849 588.258 225.413 590.405 228.4 591.772C231.388 593.139 234.689 593.674 237.955 593.322C241.222 592.97 244.333 591.742 246.96 589.77C253.96 584.48 261.57 575.67 265.79 561.13C266.944 557.079 268.333 553.099 269.95 549.21C274.95 537.52 284.58 512.6 281.69 501.82C277.88 487.53 232.21 497.32 232.21 497.32Z" fill="#FFB9B9"/>
<path opacity="0.1" d="M281.16 501.82C279.49 495.57 269.87 493.92 259.56 494.03C269.09 494.15 277.56 496.03 279.16 501.82C282.04 512.6 272.39 537.52 267.42 549.21C265.796 553.096 264.407 557.077 263.26 561.13C259.03 575.67 251.43 584.49 244.43 589.77C241.562 591.957 238.102 593.233 234.5 593.43C238.787 593.678 243.02 592.379 246.43 589.77C253.43 584.49 261.03 575.67 265.26 561.13C266.407 557.077 267.796 553.096 269.42 549.21C274.39 537.53 284.04 512.6 281.16 501.82Z" fill="black"/>
<path opacity="0.1" d="M180.13 464.61C180.13 464.61 172.75 493.61 171.13 495.36C171.13 495.36 219.13 504.98 226 512.23L227 503.98L230.38 506.23C230.38 506.23 258.13 486.48 282.38 511.23C282.38 511.23 294.25 475.23 290.88 468.48C287.51 461.73 247 467.61 247 467.61L180.13 464.61Z" fill="black"/>
<path d="M180.13 463.61C180.13 463.61 172.75 492.61 171.13 494.36C171.13 494.36 219.13 503.98 226 511.23L227 502.98L230.38 505.23C230.38 505.23 258.13 485.48 282.38 510.23C282.38 510.23 294.25 474.23 290.88 467.48C287.51 460.73 247 466.61 247 466.61L180.13 463.61Z" fill="#4C4C78"/>
<path d="M178.78 290.84C178.653 292.346 178.683 293.861 178.87 295.36C179.2 298.36 179.66 301.36 180.17 304.36C180.32 305.24 180.48 306.11 180.64 306.98C182.22 315.56 184.26 324.07 185.64 332.69C186.365 337.101 186.852 341.547 187.1 346.01C187.664 353.914 186.945 361.856 184.97 369.53C183.814 373.8 182.064 377.887 179.77 381.67C178.846 383.319 177.625 384.784 176.17 385.99C175.85 386.22 175.516 386.43 175.17 386.62C173.095 387.705 170.809 388.326 168.47 388.44C166.88 388.59 165.29 388.64 163.69 388.64C162.43 388.64 161.16 388.64 159.9 388.54C155.41 388.35 150.9 387.9 146.43 387.93C139.08 387.99 131.27 389.57 125.99 394.85C120.07 400.77 118.72 409.63 116.22 417.85C115.334 420.985 114.086 424.005 112.5 426.85C111.52 428.821 109.917 430.413 107.94 431.38C106.239 431.909 104.438 432.036 102.68 431.75L81.82 430C79.04 429.77 76.06 429.58 73.67 431.05C70.98 432.7 69.76 435.98 68.53 438.95C66.0324 444.998 62.7872 450.709 58.87 455.95C57.18 458.22 55.26 460.47 52.68 461.5C49.82 462.63 46.62 462.09 43.6 461.5C34.12 459.74 23.48 457.18 18.6 448.61C12.95 438.61 18.07 425.88 24.69 416.61C31.31 407.34 39.78 398.53 41.23 387.06C41.62 383.98 41.34 380.51 39.23 378.3C37.57 376.56 35.06 375.9 33.48 374.09C30.7 370.88 32.03 365.83 33.76 361.91C38.2963 351.594 44.5557 342.125 52.27 333.91C64.34 321.09 80.47 310.51 85.09 293.27C87.92 282.68 85.76 271.44 86.04 260.45C86.14 256.31 86.67 251.97 88.97 248.57C91.6 244.69 96.16 242.65 100.67 241.87C112.29 239.87 125.52 244.56 135.28 237.72C141.37 233.44 144.64 225.38 151.39 222.32C157.2 219.68 163.95 221.52 169.83 223.99C179.83 228.16 190.01 235.48 191.62 246.46C191.762 247.495 191.848 248.536 191.88 249.58C191.837 252.195 192.001 254.81 192.37 257.4C193.92 265.34 201.04 273.01 197.73 280.4C187.55 281.66 179.6 281.69 178.78 290.84Z" fill="#B96B6B"/>
<path opacity="0.1" d="M184.97 369.53C181.36 374.97 178.3 380.8 175.21 386.62C173.135 387.705 170.849 388.326 168.51 388.44C166.92 388.59 165.33 388.64 163.73 388.64C162.47 388.64 161.2 388.64 159.94 388.54C155.45 388.35 150.94 387.9 146.47 387.93C139.12 387.99 131.31 389.57 126.03 394.85C120.11 400.77 118.76 409.63 116.26 417.85C115.9 417.85 115.54 417.85 115.18 417.85C109.98 417.85 105.41 414.56 101.42 411.24C100.37 410.472 99.4831 409.503 98.8101 408.39C98.1893 407.055 97.9738 405.567 98.1901 404.11C98.7701 398.32 102.72 393.52 106.27 388.92C110.112 383.942 113.674 378.754 116.94 373.38C118.44 370.93 119.94 368.22 119.67 365.38C119.47 363.08 118.18 361.03 117.67 358.79C116.3 353.03 120.18 347.29 124.74 343.52C129.3 339.75 134.74 337 138.57 332.47C142.4 327.94 144.23 321.68 144.66 315.63C144.97 311.38 144.84 306.63 147.73 303.5C151.99 298.87 158.58 301.74 163.87 302.18C169.39 302.65 174.8 303.38 180.21 304.31C180.36 305.19 180.52 306.06 180.68 306.93C182.26 315.51 184.3 324.02 185.68 332.64C186.405 337.051 186.892 341.497 187.14 345.96C187.697 353.882 186.964 361.842 184.97 369.53Z" fill="black"/>
<path d="M235.88 220.31L215.88 233.98L214.35 229.65L211.05 220.31C211.05 220.31 171.38 191.31 161.71 181.48C152.04 171.65 143.55 174.98 143.55 174.98C133.88 182.15 119.71 185.65 116.05 172.98C113.32 163.58 133.75 158.67 144.46 156.77C148.348 156.076 152.356 156.785 155.77 158.77C163.09 163.03 176.48 170.7 182.71 173.65C191.55 177.81 226.38 205.15 226.38 206.65C226.38 207.65 230.93 213.83 233.73 217.51C234.98 219.16 235.88 220.31 235.88 220.31Z" fill="#FFB9B9"/>
<path d="M274.88 341.65L283.88 412.98L297.88 402.32C297.88 402.32 292.21 390.32 295.88 388.16C299.55 386 304.88 399.98 304.88 399.98C304.88 399.98 340.55 401.98 330.55 381.65L319.21 366.98L296.88 351.13L274.88 341.65Z" fill="#757A9B"/>
<path opacity="0.1" d="M274.88 341.65L283.88 412.98L297.88 402.32C297.88 402.32 292.21 390.32 295.88 388.16C299.55 386 304.88 399.98 304.88 399.98C304.88 399.98 340.55 401.98 330.55 381.65L319.21 366.98L296.88 351.13L274.88 341.65Z" fill="black"/>
<path d="M241.21 338.31L236.88 374.31L208 376.65C208 376.65 177.19 367.86 188.55 346.31C193.71 336.51 190.47 330.64 185.79 327.2C182.36 324.884 178.472 323.332 174.39 322.65C174.39 322.65 173.55 267.65 183.21 286.31C187.55 294.7 196.4 298.04 204.83 299.18C211.504 299.979 218.258 299.801 224.88 298.65L241.21 338.31Z" fill="#FFB9B9"/>
<path opacity="0.1" d="M204.84 299.65C204.839 305.635 203.014 311.477 199.609 316.399C196.204 321.321 191.38 325.089 185.78 327.2C182.35 324.884 178.462 323.332 174.38 322.65C174.38 322.65 173.54 267.65 183.2 286.31C187.54 294.7 196.39 298.04 204.82 299.18C204.84 299.34 204.84 299.53 204.84 299.65Z" fill="black"/>
<path d="M174.39 328.1C190.655 328.1 203.84 314.915 203.84 298.65C203.84 282.385 190.655 269.2 174.39 269.2C158.125 269.2 144.94 282.385 144.94 298.65C144.94 314.915 158.125 328.1 174.39 328.1Z" fill="#FFB9B9"/>
<path opacity="0.1" d="M235.88 220.31L215.88 233.98L214.35 229.65C220.3 227.7 229.47 220.85 233.73 217.51C234.98 219.16 235.88 220.31 235.88 220.31Z" fill="black"/>
<path d="M242.05 233.98L241.21 237.81L217.88 245.31C215.579 242.702 213.438 239.957 211.47 237.09C209.28 233.76 208.05 230.76 211.05 231.15C217.55 231.98 236.05 216.65 236.05 216.65C239.14 213.18 240.95 224.44 241.68 230.45C241.93 232.53 242.05 233.98 242.05 233.98Z" fill="#CBCDDA"/>
<path opacity="0.1" d="M186.71 444.65V453.8C184.71 453.8 175.87 453.35 170.2 449.9C171.2 446.9 171.88 444.98 171.88 444.98L186.71 444.65Z" fill="black"/>
<path d="M191.05 435.65L189.78 441.31L187.15 452.81C187.15 452.81 174.65 452.81 168.57 447.73C164.84 444.62 165.68 439.73 166.89 436.4C167.335 435.153 167.898 433.951 168.57 432.81L191.05 435.65Z" fill="#CBCDDA"/>
<path opacity="0.1" d="M191.05 435.65L189.78 441.31C183.87 444.43 170.35 438.11 166.89 436.4C167.335 435.153 167.898 433.951 168.57 432.81L191.05 435.65Z" fill="black"/>
<path d="M167.71 365.15L164.55 377.32C164.55 377.32 170.88 415.15 168.38 422.65C165.88 430.15 166.05 434.98 166.05 434.98C166.05 434.98 184.38 444.65 190.55 439.82C196.72 434.99 196.71 414.53 196.71 414.53L209.71 401.2L193.21 377.37L167.71 365.15Z" fill="#757A9B"/>
<path opacity="0.1" d="M230.38 317.53C230.38 317.53 246.13 370.28 194.88 358.03L209.71 416.28L180.13 471.28C180.13 471.28 274.88 487.28 290.88 466.53C290.88 466.53 283.13 404.03 286.13 383.03C289.13 362.03 276.63 329.27 269.88 327.15C263.13 325.03 230.38 317.53 230.38 317.53Z" fill="black"/>
<path opacity="0.1" d="M230.38 319.53C230.38 319.53 246.13 372.28 194.88 360.03L209.71 418.28L180.13 473.28C180.13 473.28 274.88 489.28 290.88 468.53C290.88 468.53 283.13 406.03 286.13 385.03C289.13 364.03 276.63 331.27 269.88 329.15C263.13 327.03 230.38 319.53 230.38 319.53Z" fill="black"/>
<path d="M230.38 318.53C230.38 318.53 246.13 371.28 194.88 359.03L209.71 417.28L180.13 472.28C180.13 472.28 274.88 488.28 290.88 467.53C290.88 467.53 283.13 405.03 286.13 384.03C289.13 363.03 276.63 330.27 269.88 328.15C263.13 326.03 230.38 318.53 230.38 318.53Z" fill="#CBCDDA"/>
<path opacity="0.1" d="M230.71 240.03C227.71 241.43 220.97 243.27 211.21 238.98C211.21 238.98 226.55 268.98 227.55 274.65C228.55 280.32 228.55 287.32 227.21 288.32C225.87 289.32 221.88 299.65 221.88 299.65L206.21 300.34C206.21 300.34 216.21 304.34 216.21 311.98C216.21 319.62 238.21 333.98 249.88 339.65C261.55 345.32 309.21 362.02 309.21 362.02L330.55 382.65C330.55 382.65 322.21 360.98 293.88 341.65C265.55 322.32 265.88 310.82 265.88 310.82C265.88 310.82 260.55 270.32 253.55 258.98C246.55 247.64 242.55 231.32 242.55 231.32C242.55 231.32 236.95 239.04 233.62 239.25C232.61 239.329 231.624 239.593 230.71 240.03Z" fill="black"/>
<path opacity="0.1" d="M242.05 233.98L241.21 237.81L217.88 245.31C215.579 242.702 213.438 239.957 211.47 237.09C221.1 241.24 227.71 239.42 230.71 238.03C231.622 237.588 232.609 237.323 233.62 237.25C236.15 237.09 239.98 232.61 241.68 230.45C241.93 232.53 242.05 233.98 242.05 233.98Z" fill="black"/>
<path d="M230.71 239.03C227.71 240.43 220.97 242.27 211.21 237.98C211.21 237.98 226.55 267.98 227.55 273.65C228.55 279.32 228.55 286.32 227.21 287.32C225.87 288.32 221.88 298.65 221.88 298.65L206.21 299.34C206.21 299.34 216.21 303.34 216.21 310.98C216.21 318.62 238.21 332.98 249.88 338.65C261.55 344.32 309.21 361.02 309.21 361.02L330.55 381.65C330.55 381.65 322.21 359.98 293.88 340.65C265.55 321.32 265.88 309.82 265.88 309.82C265.88 309.82 260.55 269.32 253.55 257.98C246.55 246.64 242.55 230.32 242.55 230.32C242.55 230.32 236.95 238.04 233.62 238.25C232.61 238.329 231.624 238.593 230.71 239.03Z" fill="#757A9B"/>
<path opacity="0.1" d="M155.34 320.86C156.34 317.71 155.74 314.28 156.16 311C157.28 302.11 165.65 294.95 165.26 286C165.112 285.164 165.235 284.302 165.61 283.54C166.166 282.914 166.945 282.53 167.78 282.47C172.14 281.68 177.15 282.1 180.39 279.08C183.63 276.06 183.55 270.59 183.06 265.99C182.79 263.52 182.4 260.8 180.51 259.17C179.22 258.227 177.72 257.613 176.14 257.38C170.687 256.14 165.203 255.057 159.69 254.13C154.13 253.19 148.28 252.44 142.99 254.39C137.7 256.34 133.59 260.92 129.82 265.29C126.27 269.4 122.48 274.34 123.48 279.69C124.03 282.59 125.92 285.02 127.18 287.69C128.501 290.56 129.101 293.709 128.927 296.864C128.752 300.019 127.809 303.083 126.18 305.79C123.56 310.03 119.18 313.38 118.12 318.24C117.12 322.78 119.43 327.72 123.31 330.29C131.26 335.53 152.21 330.79 155.34 320.86Z" fill="black"/>
<path d="M154.34 320.86C155.34 317.71 154.74 314.28 155.16 311C156.28 302.11 164.65 294.95 164.26 286C164.112 285.164 164.235 284.302 164.61 283.54C165.166 282.914 165.945 282.53 166.78 282.47C171.14 281.68 176.15 282.1 179.39 279.08C182.63 276.06 182.55 270.59 182.06 265.99C181.79 263.52 181.4 260.8 179.51 259.17C178.22 258.227 176.72 257.613 175.14 257.38C169.687 256.14 164.203 255.057 158.69 254.13C153.13 253.19 147.28 252.44 141.99 254.39C136.7 256.34 132.59 260.92 128.82 265.29C125.27 269.4 121.48 274.34 122.48 279.69C123.03 282.59 124.92 285.02 126.18 287.69C127.501 290.56 128.101 293.709 127.927 296.864C127.752 300.019 126.809 303.083 125.18 305.79C122.56 310.03 118.18 313.38 117.12 318.24C116.12 322.78 118.43 327.72 122.31 330.29C130.26 335.53 151.21 330.79 154.34 320.86Z" fill="#B96B6B"/>
<path opacity="0.1" d="M188.61 328.76C188.61 328.76 163.88 348.32 163.05 354.82C162.22 361.32 165.71 376.65 165.71 376.65L190.38 392.15C190.38 392.15 218.88 403.32 197.55 421.98C176.22 440.64 168.71 480.65 168.71 480.65C168.71 480.65 179.05 492.98 198.38 457.53C198.38 457.53 217.05 437.2 217.88 427.2C218.71 417.2 221.62 386.53 209 367.53C200.67 354.99 196.14 340.91 192.88 333.62C192.097 331.534 190.578 329.805 188.61 328.76V328.76Z" fill="black"/>
<path d="M187.61 328.76C187.61 328.76 162.88 348.32 162.05 354.82C161.22 361.32 164.71 376.65 164.71 376.65L189.38 392.15C189.38 392.15 217.88 403.32 196.55 421.98C175.22 440.64 167.71 480.65 167.71 480.65C167.71 480.65 178.05 492.98 197.38 457.53C197.38 457.53 216.05 437.2 216.88 427.2C217.71 417.2 220.62 386.53 208 367.53C199.67 354.99 195.14 340.91 191.88 333.62C191.097 331.534 189.578 329.805 187.61 328.76V328.76Z" fill="#757A9B"/>
<path opacity="0.1" d="M196.55 421.98C196.55 421.98 174.85 428.78 177.49 449.98Z" fill="black"/>
<path opacity="0.1" d="M201.74 392.65L196.71 414.49L206.21 404.75L201.74 392.65Z" fill="black"/>
<path opacity="0.1" d="M227 502.99L220.52 507.9L226 511.24L227 502.99Z" fill="black"/>
<path opacity="0.1" d="M263.38 392.65C263.38 392.65 285.68 393.37 286.13 384.98Z" fill="black"/>
<path d="M44.08 728.86C44.08 728.86 49.58 736.05 41.55 746.86C33.52 757.67 26.9 766.86 29.55 773.62C29.55 773.62 41.66 753.48 51.55 753.2C61.44 752.92 54.93 740.98 44.08 728.86Z" fill="#1074E7"/>
<path opacity="0.1" d="M44.08 728.86C44.5597 729.554 44.94 730.311 45.21 731.11C54.83 742.42 59.95 752.97 50.7 753.23C42.09 753.53 31.78 768.88 29.28 772.77C29.3604 773.07 29.4606 773.364 29.58 773.65C29.58 773.65 41.69 753.51 51.58 753.23C61.47 752.95 54.93 740.98 44.08 728.86Z" fill="black"/>
<path d="M54.3 738.02C54.3 740.55 54.01 742.6 53.66 742.6C53.31 742.6 53.03 740.55 53.03 738.02C53.03 735.49 53.38 736.68 53.73 736.68C54.08 736.68 54.3 735.53 54.3 738.02Z" fill="#FFD037"/>
<path d="M57.7799 741.04C55.5599 742.25 53.6199 742.98 53.4599 742.67C53.2999 742.36 54.9499 741.13 57.1699 739.92C59.3899 738.71 58.5199 739.59 58.6899 739.92C58.8599 740.25 60.0199 739.83 57.7799 741.04Z" fill="#FFD037"/>
<path d="M15.07 728.86C15.07 728.86 9.57004 736.05 17.6 746.86C25.63 757.67 32.25 766.86 29.6 773.62C29.6 773.62 17.48 753.48 7.60004 753.2C-2.27996 752.92 4.22004 740.98 15.07 728.86Z" fill="#1074E7"/>
<path opacity="0.1" d="M15.0699 728.86C14.5903 729.554 14.2099 730.311 13.9399 731.11C4.31995 742.42 -0.800055 752.97 8.44995 753.23C17.0599 753.48 27.3899 768.88 29.8699 772.77C29.7883 773.068 29.6916 773.362 29.58 773.65C29.58 773.65 17.4599 753.53 7.59995 753.23C-2.26005 752.93 4.21995 740.98 15.0699 728.86Z" fill="black"/>
<path d="M4.84998 738.02C4.84998 740.55 5.13997 742.6 5.48997 742.6C5.83997 742.6 6.11998 740.55 6.11998 738.02C6.11998 735.49 5.76998 736.68 5.41998 736.68C5.06998 736.68 4.84998 735.53 4.84998 738.02Z" fill="#FFD037"/>
<path d="M1.34997 741.04C3.56997 742.25 5.50997 742.98 5.66997 742.67C5.82997 742.36 4.17997 741.13 1.95997 739.92C-0.260027 738.71 0.609973 739.59 0.439973 739.92C0.269973 740.25 -0.870028 739.83 1.34997 741.04Z" fill="#FFD037"/>
<path d="M6.59998 772.71C6.59998 772.71 21.96 772.24 26.6 768.95C31.24 765.66 50.23 761.71 51.38 767C52.53 772.29 74.46 793.29 57.12 793.43C39.78 793.57 16.78 790.73 12.2 787.92C7.61997 785.11 6.59998 772.71 6.59998 772.71Z" fill="#A8A8A8"/>
<path opacity="0.2" d="M57.42 791.59C40.08 791.73 17.13 788.89 12.51 786.08C8.98998 783.93 7.58998 776.24 7.11998 772.69H6.59998C6.59998 772.69 7.59997 785.08 12.2 787.9C16.8 790.72 39.78 793.53 57.11 793.43C62.11 793.43 63.84 791.61 63.75 788.97C63.05 790.53 61.14 791.53 57.42 791.59Z" fill="black"/>
<path d="M1030.32 648.53C1032.15 647.034 1033.49 645.019 1034.15 642.75C1034.65 640.45 1033.67 637.69 1031.47 636.85C1029.01 635.91 1026.38 637.62 1024.39 639.34C1022.4 641.06 1020.11 643.03 1017.5 642.66C1018.84 641.446 1019.85 639.903 1020.42 638.183C1020.99 636.464 1021.1 634.626 1020.74 632.85C1020.63 632.113 1020.32 631.42 1019.84 630.85C1018.48 629.39 1016 630.02 1014.37 631.17C1009.17 634.82 1007.72 641.89 1007.69 648.24C1007.16 645.95 1007.61 643.56 1007.59 641.24C1007.57 638.92 1006.93 636.24 1004.95 635.02C1003.72 634.36 1002.34 634.033 1000.95 634.07C998.61 633.98 996.01 634.22 994.41 635.93C992.41 638.05 992.94 641.62 994.67 643.93C996.4 646.24 999.02 647.74 1001.44 649.35C1003.38 650.504 1005.03 652.08 1006.27 653.96C1006.42 654.225 1006.54 654.503 1006.63 654.79H1021.28C1024.56 653.118 1027.6 651.013 1030.32 648.53V648.53Z" fill="#1074E7"/>
<path d="M913.88 664.26C913.88 664.26 899.83 616.53 916.51 581.43C923.605 566.749 925.746 550.162 922.61 534.16C921.06 526.575 918.821 519.148 915.92 511.97" stroke="#535461" stroke-width="2" stroke-miterlimit="10"/>
<path d="M926.3 489.78C926.3 495.62 915.71 512.58 915.71 512.58C915.71 512.58 905.12 495.58 905.12 489.78C905.12 486.971 906.236 484.278 908.222 482.292C910.208 480.306 912.901 479.19 915.71 479.19C918.519 479.19 921.212 480.306 923.198 482.292C925.184 484.278 926.3 486.971 926.3 489.78Z" fill="#1074E7"/>
<path d="M943.78 522.16C940.6 527.07 922.5 535.55 922.5 535.55C922.5 535.55 922.83 515.55 926 510.66C926.74 509.459 927.712 508.419 928.859 507.599C930.007 506.779 931.306 506.197 932.682 505.886C934.057 505.575 935.481 505.542 936.869 505.789C938.258 506.036 939.583 506.558 940.767 507.324C941.951 508.089 942.97 509.084 943.765 510.249C944.559 511.414 945.113 512.726 945.394 514.108C945.674 515.49 945.676 516.914 945.399 518.297C945.122 519.68 944.572 520.993 943.78 522.16V522.16Z" fill="#1074E7"/>
<path d="M943.03 577.53C937.81 580.16 917.91 578.34 917.91 578.34C917.91 578.34 928.28 561.26 933.5 558.62C934.745 557.961 936.109 557.556 937.512 557.431C938.915 557.305 940.329 557.461 941.672 557.889C943.014 558.316 944.257 559.007 945.329 559.922C946.401 560.836 947.279 561.955 947.913 563.213C948.547 564.471 948.924 565.843 949.021 567.248C949.118 568.653 948.934 570.064 948.479 571.397C948.025 572.73 947.308 573.96 946.373 575.013C945.437 576.066 944.301 576.922 943.03 577.53V577.53Z" fill="#1074E7"/>
<path d="M933.03 619.25C928.32 622.73 908.4 624.25 908.4 624.25C908.4 624.25 915.73 605.66 920.4 602.18C922.661 600.651 925.425 600.053 928.116 600.513C930.807 600.972 933.216 602.453 934.841 604.646C936.467 606.839 937.183 609.575 936.839 612.283C936.496 614.991 935.121 617.462 933 619.18L933.03 619.25Z" fill="#1074E7"/>
<path d="M900.29 536.68C904.48 540.76 924.02 544.98 924.02 544.98C924.02 544.98 919.24 525.57 915.02 521.5C913.007 519.544 910.299 518.468 907.493 518.508C904.686 518.548 902.011 519.702 900.055 521.715C898.099 523.728 897.023 526.436 897.063 529.242C897.103 532.049 898.257 534.724 900.27 536.68H900.29Z" fill="#1074E7"/>
<path d="M889.2 585.65C894.42 588.29 914.33 586.47 914.33 586.47C914.33 586.47 903.96 569.38 898.78 566.75C896.285 565.579 893.432 565.428 890.827 566.327C888.222 567.226 886.07 569.105 884.828 571.565C883.586 574.025 883.352 576.873 884.176 579.503C885 582.133 886.817 584.338 889.24 585.65H889.2Z" fill="#1074E7"/>
<path d="M884.96 634.73C889.66 638.2 909.59 639.73 909.59 639.73C909.59 639.73 902.25 621.13 897.59 617.65C896.481 616.741 895.198 616.066 893.82 615.667C892.442 615.269 890.997 615.154 889.574 615.331C888.15 615.507 886.777 615.971 885.538 616.694C884.299 617.417 883.22 618.385 882.366 619.538C881.513 620.69 880.902 622.005 880.571 623.401C880.241 624.797 880.198 626.245 880.444 627.658C880.69 629.072 881.221 630.42 882.004 631.622C882.787 632.824 883.807 633.854 885 634.65L884.96 634.73Z" fill="#1074E7"/>
<path d="M926.3 489.78C926.3 495.62 915.71 512.58 915.71 512.58C915.71 512.58 905.12 495.58 905.12 489.78C905.12 486.971 906.236 484.278 908.222 482.292C910.208 480.306 912.901 479.19 915.71 479.19C918.519 479.19 921.212 480.306 923.198 482.292C925.184 484.278 926.3 486.971 926.3 489.78Z" fill="#1074E7"/>
<path d="M943.78 522.16C940.6 527.07 922.5 535.55 922.5 535.55C922.5 535.55 922.83 515.55 926 510.66C926.74 509.459 927.712 508.419 928.859 507.599C930.007 506.779 931.306 506.197 932.682 505.886C934.057 505.575 935.481 505.542 936.869 505.789C938.258 506.036 939.583 506.558 940.767 507.324C941.951 508.089 942.97 509.084 943.765 510.249C944.559 511.414 945.113 512.726 945.394 514.108C945.674 515.49 945.676 516.914 945.399 518.297C945.122 519.68 944.572 520.993 943.78 522.16V522.16Z" fill="#1074E7"/>
<path d="M943.03 577.53C937.81 580.16 917.91 578.34 917.91 578.34C917.91 578.34 928.28 561.26 933.5 558.62C934.745 557.961 936.109 557.556 937.512 557.431C938.915 557.305 940.329 557.461 941.672 557.889C943.014 558.316 944.257 559.007 945.329 559.922C946.401 560.836 947.279 561.955 947.913 563.213C948.547 564.471 948.924 565.843 949.021 567.248C949.118 568.653 948.934 570.064 948.479 571.397C948.025 572.73 947.308 573.96 946.373 575.013C945.437 576.066 944.301 576.922 943.03 577.53V577.53Z" fill="#1074E7"/>
<path d="M933.03 619.25C928.32 622.73 908.4 624.25 908.4 624.25C908.4 624.25 915.73 605.66 920.4 602.18C922.661 600.651 925.425 600.053 928.116 600.513C930.807 600.972 933.216 602.453 934.841 604.646C936.467 606.839 937.183 609.575 936.839 612.283C936.496 614.991 935.121 617.462 933 619.18L933.03 619.25Z" fill="#1074E7"/>
<path d="M900.29 536.68C904.48 540.76 924.02 544.98 924.02 544.98C924.02 544.98 919.24 525.57 915.02 521.5C913.007 519.544 910.299 518.468 907.493 518.508C904.686 518.548 902.011 519.702 900.055 521.715C898.099 523.728 897.023 526.436 897.063 529.242C897.103 532.049 898.257 534.724 900.27 536.68H900.29Z" fill="#1074E7"/>
<path d="M889.2 585.65C894.42 588.29 914.33 586.47 914.33 586.47C914.33 586.47 903.96 569.38 898.78 566.75C896.285 565.579 893.432 565.428 890.827 566.327C888.222 567.226 886.07 569.105 884.828 571.565C883.586 574.025 883.352 576.873 884.176 579.503C885 582.133 886.817 584.338 889.24 585.65H889.2Z" fill="#1074E7"/>
<path d="M884.96 634.73C889.66 638.2 909.59 639.73 909.59 639.73C909.59 639.73 902.25 621.13 897.59 617.65C896.481 616.741 895.198 616.066 893.82 615.667C892.442 615.269 890.997 615.154 889.574 615.331C888.15 615.507 886.777 615.971 885.538 616.694C884.299 617.417 883.22 618.385 882.366 619.538C881.513 620.69 880.902 622.005 880.571 623.401C880.241 624.797 880.198 626.245 880.444 627.658C880.69 629.072 881.221 630.42 882.004 631.622C882.787 632.824 883.807 633.854 885 634.65L884.96 634.73Z" fill="#1074E7"/>
<path d="M880.67 661.25C880.67 661.25 897.78 657.85 902.34 653.32C906.9 648.79 927.44 640.86 929.72 646.52C932 652.18 960.52 671.44 941.13 674.84C921.74 678.24 895.5 679.37 889.79 677.1C884.08 674.83 880.67 661.25 880.67 661.25Z" fill="#A8A8A8"/>
<path opacity="0.2" d="M941.13 672.73C921.74 676.13 895.5 677.26 889.79 675C885.45 673.27 882.43 665 881.24 661.13L880.67 661.25C880.67 661.25 884.09 674.84 889.79 677.1C895.49 679.36 921.79 678.24 941.13 674.84C946.73 673.84 948.33 671.55 947.72 668.64C947.25 670.53 945.3 672 941.13 672.73Z" fill="black"/>
<path d="M640.04 128.05H413.33C402.864 128.05 394.38 136.534 394.38 147V373.71C394.38 384.176 402.864 392.66 413.33 392.66H640.04C650.506 392.66 658.99 384.176 658.99 373.71V147C658.99 136.534 650.506 128.05 640.04 128.05Z" fill="#EAEAF3"/>
<path opacity="0.1" d="M544.45 173.85H452.16C441.694 173.85 433.21 182.334 433.21 192.8V285.09C433.21 295.556 441.694 304.04 452.16 304.04H544.45C554.916 304.04 563.4 295.556 563.4 285.09V192.8C563.4 182.334 554.916 173.85 544.45 173.85Z" fill="#1074E7"/>
<path opacity="0.1" d="M601.19 216.65H508.9C498.434 216.65 489.95 225.134 489.95 235.6V327.89C489.95 338.356 498.434 346.84 508.9 346.84H601.19C611.656 346.84 620.14 338.356 620.14 327.89V235.6C620.14 225.134 611.656 216.65 601.19 216.65Z" fill="#1074E7"/>
</g>
<defs>
<linearGradient id="paint0_linear" x1="174.26" y1="786.32" x2="174.26" y2="153.98" gradientUnits="userSpaceOnUse">
<stop stop-color="#808080" stop-opacity="0.25"/>
<stop offset="0.54" stop-color="#808080" stop-opacity="0.12"/>
<stop offset="1" stop-color="#808080" stop-opacity="0.1"/>
</linearGradient>
<clipPath id="clip0">
<rect width="1105.56" height="813.07" fill="white"/>
</clipPath>
</defs>
</svg>
